<?xml version="1.0" ?><svg style="enable-background:new 0 0 64 64;" version="1.1" viewBox="0 0 64 64" xml:space="preserve" xmlns="http://www.w3.org/2000/svg" xmlns:xlink="http://www.w3.org/1999/xlink"><g id="basketball"/><g id="field"/><g id="basket"/><g id="trophy"/><g id="league_1_"><path d="M56,48.1V42c0-0.6-0.4-1-1-1h-6v-7c0-0.6-0.4-1-1-1H33v-8c0,0,0,0,0,0c0.9-0.1,1.7-0.3,2.5-0.5c3.2-1.1,5.8-3.7,6.9-6.9   c0.4-1.1,0.6-2.3,0.6-3.5s-0.2-2.4-0.6-3.5c-1.1-3.2-3.7-5.8-6.9-6.9c-2.3-0.8-4.8-0.8-7.1,0c-3.2,1.1-5.8,3.7-6.9,6.9   C21.2,11.6,21,12.8,21,14s0.2,2.4,0.6,3.5c1.1,3.2,3.7,5.8,6.9,6.9c0.8,0.3,1.7,0.5,2.5,0.5c0,0,0,0,0,0v8H16c-0.6,0-1,0.4-1,1v7H9   c-0.6,0-1,0.4-1,1v6.1C5.2,48.6,3,51,3,54v6c0,0.6,0.4,1,1,1h10c0.6,0,1-0.4,1-1v-6c0-3-2.2-5.4-5-5.9V43h12v5.1   c-2.8,0.5-5,2.9-5,5.9v6c0,0.6,0.4,1,1,1h10c0.6,0,1-0.4,1-1v-6c0-3-2.2-5.4-5-5.9V42c0-0.6-0.4-1-1-1h-6v-6h30v6h-6   c-0.6,0-1,0.4-1,1v6.1c-2.8,0.5-5,2.9-5,5.9v6c0,0.6,0.4,1,1,1h10c0.6,0,1-0.4,1-1v-6c0-3-2.2-5.4-5-5.9V43h12v5.1   c-2.8,0.5-5,2.9-5,5.9v6c0,0.6,0.4,1,1,1h10c0.6,0,1-0.4,1-1v-6C61,51,58.8,48.6,56,48.1z M29.2,22.5c-0.3-0.6-1-2.1-1.6-4   c0.1,0,0.1,0.1,0.2,0.1c0.3,0.2,0.5,0.5,0.8,0.7c1.8,1.6,3.3,2.9,6.2,3.2C32.9,23.1,30.9,23.1,29.2,22.5z M23.4,16.5   c-0.2-0.6-0.3-1.2-0.3-1.8c0.7,0.3,1.4,0.5,2.1,0.7c0,0.2,0,0.3,0,0.5C24.5,15.9,23.9,16.2,23.4,16.5z M25.3,12.2   c-0.1,0.4-0.1,0.7-0.1,1.1c-0.8-0.2-1.4-0.5-2.1-0.8c0.1-0.5,0.2-1,0.4-1.4c0.1-0.2,0.1-0.3,0.2-0.5C24.1,11.2,24.6,11.8,25.3,12.2   z M27.4,12.8c0.9,0,1.7-0.3,2.6-0.9c3.9-2.5,7.3-2.8,10.5-0.8C40.8,12.1,41,13,41,14c0,0.4,0,0.7-0.1,1.1   c-4.9-0.2-9.9-0.5-13.8-1.3c0-0.3,0.1-0.6,0.1-0.9C27.3,12.8,27.3,12.8,27.4,12.8z M38.2,20.5c-4.6,0.6-6-0.7-8.3-2.7   c-0.3-0.2-0.5-0.5-0.8-0.7c-0.7-0.6-1.3-0.9-1.9-1.1c0-0.1,0-0.1,0-0.2c3.9,0.8,8.6,1,13.3,1.3C40,18.4,39.2,19.6,38.2,20.5z    M38.9,8.2C35.8,7.4,32.5,8,29,10.3c-0.5,0.3-0.9,0.4-1.3,0.5c0.7-2,2.1-4.1,4.6-5.8c0.9,0,1.8,0.2,2.6,0.5C36.5,6,37.9,7,38.9,8.2   z M28.4,5.8c-1.2,1.4-2.1,2.8-2.6,4.3c-0.5-0.5-0.8-1.1-1-1.5C25.8,7.3,27,6.4,28.4,5.8z M24.1,18.3c0.3-0.2,0.8-0.4,1.3-0.5   c0.2,1.2,0.5,2.2,0.9,3.1C25.4,20.2,24.7,19.3,24.1,18.3z M13,54v5H5v-5c0-2.2,1.8-4,4-4S13,51.8,13,54z M27,54v5h-8v-5   c0-2.2,1.8-4,4-4S27,51.8,27,54z M45,54v5h-8v-5c0-2.2,1.8-4,4-4S45,51.8,45,54z M59,59h-8v-5c0-2.2,1.8-4,4-4s4,1.8,4,4V59z"/></g><g id="player"/><g id="uniform_1_"/><g id="scoreboard"/><g id="medal"/><g id="shoe_1_"/><g id="ticket_1_"/><g id="event_1_"/><g id="time"/><g id="strategy_1_"/><g id="supporter"/><g id="whistle"/><g id="podium"/><g id="bag"/><g id="bottle"/><g id="badge"/></svg>